# xmcd
#
# Track frame offsets:
#	150
#	19225
#	29555
#	52313
#	65580
#	81445
#	99248
#	112065
#	128048
#	142405
#
# Disc length: 2113 seconds
#
# Revision: 3
# Processed by: cddbd v1.5.2PL0 Copyright (c) Steve Scherf et al.
# Submitted via: EasyCDDAExtractor 16.0.1.1
#
DISCID=9a083f0a
DTITLE=Paul Brandt - Shall I Play for You
DYEAR=1998
DGENRE=Christmaas Country
TTITLE0=The Little Drummer Boy
TTITLE1=Santa Looked A Lot Like Daddy
TTITLE2=What Child Is This
TTITLE3=Run Run Rudolph
TTITLE4=A Star Is Born
TTITLE5=The Way in a Manger
TTITLE6=Jingle Bells
TTITLE7=Silent Night
TTITLE8=Six Tons of Toys
TTITLE9=O Holy Night
EXTD=This selection of Christmas Hymns and Tunes shows the true talent of a Ca
EXTD=nadian country singer. His voice is definitely inspiring to say the least
EXTD=, so hop aboard this Spiritual ride. YEAR: 1998 ID3G:  12
EXTT0=
EXTT1=
EXTT2=
EXTT3=
EXTT4=
EXTT5=
EXTT6=
EXTT7=
EXTT8=
EXTT9=
PLAYORDER=
